<?xml version="1.0" standalone="no"?>
<!DOCTYPE svg PUBLIC "-//W3C//DTD SVG 20010904//EN"
 "http://www.w3.org/TR/2001/REC-SVG-20010904/DTD/svg10.dtd">
<svg version="1.0" xmlns="http://www.w3.org/2000/svg"
 width="262.000000pt" height="262.000000pt" viewBox="0 0 262.000000 262.000000"
 preserveAspectRatio="xMidYMid meet">

<g transform="translate(0.000000,262.000000) scale(0.100000,-0.100000)"
fill="#ffffff" stroke="none">
<path d="M1145 2594 c-96 -13 -207 -37 -253 -56 -253 -103 -412 -210 -553
-373 -214 -248 -317 -520 -321 -847 -4 -357 129 -678 387 -933 198 -196 458
-326 720 -362 115 -15 363 -8 435 12 8 2 26 6 40 9 14 3 61 16 105 29 383 116
724 457 842 842 27 90 28 94 45 185 19 106 16 356 -6 455 -46 207 -86 304
-194 469 -267 408 -761 634 -1247 570z m494 -538 c41 -43 47 -22 -189 -631
-32 -82 -117 -305 -190 -495 -80 -209 -141 -354 -155 -369 -47 -48 -135 -14
-135 53 0 27 73 223 285 771 23 61 89 231 146 378 56 148 111 280 121 293 27
33 86 33 117 0z m-714 -371 c26 -25 32 -63 15 -94 -5 -10 -99 -76 -209 -147
-162 -105 -198 -131 -187 -142 7 -7 60 -45 117 -85 277 -190 269 -183 269
-231 0 -48 -29 -80 -72 -80 -28 0 -78 31 -280 172 -136 95 -254 182 -262 194
-22 31 -20 63 7 92 12 14 134 97 271 185 268 173 287 181 331 136z m1085 -141
c140 -91 261 -173 268 -182 18 -23 15 -76 -5 -100 -22 -24 -455 -328 -499
-349 -27 -13 -35 -13 -60 -2 -37 18 -59 58 -51 91 8 30 50 65 251 203 80 55
146 103 146 106 0 3 -72 53 -161 110 -242 156 -243 157 -247 206 -3 34 1 44
24 62 15 11 38 21 53 21 17 0 118 -60 281 -166z"/>
</g>
</svg>
