<svg width="99" height="106" viewBox="0 0 99 106" fill="none" xmlns="http://www.w3.org/2000/svg">
<path d="M4.21277 52.9997C5.33006 52.9997 6.40159 52.5344 7.19164 51.7061C7.98169 50.8779 8.42553 49.7545 8.42553 48.5831V8.83329H54.766V35.3332C54.766 36.5045 55.2098 37.6279 55.9998 38.4562C56.7899 39.2845 57.8614 39.7498 58.9787 39.7498H84.2553V48.5831C84.2553 49.7545 84.6992 50.8779 85.4892 51.7061C86.2793 52.5344 87.3508 52.9997 88.4681 52.9997C89.5854 52.9997 90.6569 52.5344 91.447 51.7061C92.237 50.8779 92.6809 49.7545 92.6809 48.5831V35.3332C92.6813 34.753 92.5727 34.1784 92.3613 33.6423C92.1498 33.1061 91.8397 32.6189 91.4486 32.2084L61.9593 1.29187C61.5677 0.881854 61.103 0.556727 60.5916 0.335064C60.0802 0.113401 59.5321 -0.000454852 58.9787 1.36562e-06H8.42553C6.19094 1.36562e-06 4.04787 0.930649 2.46778 2.58721C0.887687 4.24378 0 6.49056 0 8.83329V48.5831C0 49.7545 0.443845 50.8779 1.23389 51.7061C2.02394 52.5344 3.09547 52.9997 4.21277 52.9997ZM63.1915 15.0773L78.2995 30.9165H63.1915V15.0773ZM99 101.583C99 102.754 98.5562 103.878 97.7661 104.706C96.9761 105.534 95.9045 105.999 94.7872 105.999H80.0426C78.9253 105.999 77.8537 105.534 77.0637 104.706C76.2736 103.878 75.8298 102.754 75.8298 101.583V70.6663C75.8298 69.495 76.2736 68.3716 77.0637 67.5433C77.8537 66.715 78.9253 66.2497 80.0426 66.2497C81.1599 66.2497 82.2314 66.715 83.0214 67.5433C83.8115 68.3716 84.2553 69.495 84.2553 70.6663V97.1662H94.7872C95.9045 97.1662 96.9761 97.6315 97.7661 98.4598C98.5562 99.2881 99 100.411 99 101.583ZM27.2882 95.129C27.124 96.8183 26.6049 98.4484 25.7681 99.9022C24.9313 101.356 23.7977 102.597 22.4488 103.537C19.7157 105.447 16.3245 105.999 13.2386 105.999C10.5473 105.985 7.8686 105.614 5.26596 104.895C4.20266 104.569 3.30485 103.816 2.76699 102.801C2.22913 101.785 2.09451 100.589 2.3923 99.4697C2.69009 98.3508 3.39631 97.4 4.35799 96.8232C5.31968 96.2463 6.45941 96.0899 7.53032 96.3878C9.83681 97.0503 15.4029 97.8784 17.8253 96.189C18.2939 95.8633 18.7889 95.3499 18.9522 94.0193C19.1365 92.5453 18.5783 91.7558 12.2223 89.8291C7.29862 88.3384 -0.942607 85.8375 0.110585 77.0705C0.274504 75.4144 0.78408 73.8165 1.60315 72.3901C2.42222 70.9637 3.53071 69.7437 4.84995 68.8169C11.0848 64.4002 21.027 66.9895 22.1381 67.2931C22.6733 67.441 23.1756 67.698 23.6161 68.0494C24.0566 68.4008 24.4268 68.8397 24.7055 69.341C24.9842 69.8424 25.166 70.3965 25.2405 70.9715C25.315 71.5465 25.2808 72.1313 25.1397 72.6925C24.9986 73.2536 24.7535 73.7801 24.4183 74.242C24.0832 74.7038 23.6645 75.0919 23.1863 75.3841C22.708 75.6763 22.1796 75.867 21.6311 75.9451C21.0826 76.0232 20.5248 75.9872 19.9896 75.8393C17.6252 75.1934 11.9748 74.426 9.55245 76.1485C9.23492 76.3731 8.97351 76.6743 8.79023 77.0269C8.60695 77.3795 8.50715 77.7732 8.49926 78.1746C8.43606 78.6715 8.42553 78.7709 9.08904 79.2236C10.3055 80.0462 12.4803 80.7032 14.592 81.3436C19.7473 82.906 28.4678 85.5725 27.2882 95.129ZM64.6765 96.9122C66.4732 93.6297 67.4139 89.9092 67.4043 86.1246C67.4043 75.1658 59.8476 66.2497 50.5532 66.2497C41.2588 66.2497 33.7021 75.1658 33.7021 86.1246C33.7021 97.0834 41.2588 105.999 50.5532 105.999C53.529 105.988 56.4377 105.072 58.9261 103.361L60.211 104.708C61.0014 105.536 62.0733 106.001 63.1907 106C64.3081 105.999 65.3796 105.534 66.1694 104.705C66.9592 103.876 67.4026 102.752 67.4021 101.581C67.4016 100.409 66.9572 99.2861 66.1668 98.4581L64.6765 96.9122ZM50.5532 97.1662C45.9086 97.1662 42.1277 92.1975 42.1277 86.1246C42.1277 80.0517 45.9086 75.083 50.5532 75.083C55.1978 75.083 58.9787 80.0517 58.9787 86.1246C58.9794 87.5322 58.7697 88.9312 58.3573 90.2707L57.7412 89.6248C57.3498 89.2148 56.8852 88.8896 56.3739 88.6679C55.8627 88.4462 55.3148 88.3321 54.7615 88.3324C53.644 88.3329 52.5726 88.7988 51.7828 89.6275C50.993 90.4563 50.5496 91.58 50.5501 92.7515C50.5506 93.923 50.9949 95.0463 51.7854 95.8743L52.6701 96.7963C51.9876 97.0362 51.273 97.161 50.5532 97.1662Z" fill="#16213E"/>
</svg>
